<svg xmlns="http://www.w3.org/2000/svg" xmlns:xlink="http://www.w3.org/1999/xlink" id="Layer_1" x="0" y="0" version="1.1" viewBox="0 0 100 100" style="enable-background:new 0 0 100 100" xml:space="preserve"><style type="text/css">.st0{fill:#181818}.st1{fill:#fff}</style><g><path d="M99.1,17.2c2.2,4.1,0.3,12.2-5.9,24.2c-6.1,12-14.6,23-25.4,32.9c-10.8,10-18.4,16-22.6,18.1 c-7.1,3.9-13.1,2-17.9-5.6S17.5,70.3,12.5,60C5,44.8,0.9,33.8,0.2,26.9C-0.5,20.1,0.5,16,3.1,14.7c8.1-4,20.4-6.7,36.7-8.2 c16.4-1.5,29.8-1,40.4,1.6C90.8,10.6,97.1,13.6,99.1,17.2z" class="st0"/><path d="M38.3,27.2l25.6,20l-25.6,20C38.3,67.2,38.3,27.2,38.3,27.2z" class="st1"/></g></svg>